<svg width="11" height="19" viewBox="0 0 11 19" fill="none" xmlns="http://www.w3.org/2000/svg">
<path d="M3.4398 10.8302C3.3738 10.8302 1.9218 10.8302 1.2618 10.8302C0.909805 10.8302 0.799805 10.6982 0.799805 10.3682C0.799805 9.4882 0.799805 8.5862 0.799805 7.7062C0.799805 7.3542 0.931805 7.2442 1.2618 7.2442H3.4398C3.4398 7.1782 3.4398 5.9022 3.4398 5.3082C3.4398 4.4282 3.5938 3.5922 4.0338 2.8222C4.4958 2.0302 5.1558 1.5022 5.9918 1.1942C6.5418 0.996203 7.0918 0.908203 7.6858 0.908203H9.84179C10.1498 0.908203 10.2818 1.0402 10.2818 1.3482V3.8562C10.2818 4.1642 10.1498 4.2962 9.84179 4.2962C9.24779 4.2962 8.6538 4.2962 8.0598 4.3182C7.4658 4.3182 7.1578 4.6042 7.1578 5.2202C7.1358 5.8802 7.1578 6.5182 7.1578 7.2002H9.70979C10.0618 7.2002 10.1938 7.3322 10.1938 7.6842V10.3462C10.1938 10.6982 10.0838 10.8082 9.70979 10.8082C8.9178 10.8082 7.2238 10.8082 7.1578 10.8082V17.9802C7.1578 18.3542 7.0478 18.4862 6.6518 18.4862C5.7278 18.4862 4.8258 18.4862 3.9018 18.4862C3.5718 18.4862 3.4398 18.3542 3.4398 18.0242C3.4398 15.7142 3.4398 10.8962 3.4398 10.8302Z" fill="white"/>
</svg>
