<svg width="21" height="18" viewBox="0 0 21 18" fill="none" xmlns="http://www.w3.org/2000/svg">
<path d="M20.8 2.91069C20.02 3.24869 19.214 3.48269 18.356 3.58669C19.24 3.06669 19.916 2.23469 20.228 1.22069C19.396 1.71469 18.486 2.05269 17.524 2.26069C16.744 1.42869 15.626 0.908691 14.404 0.908691C12.038 0.908691 10.14 2.83269 10.14 5.17269C10.14 5.51069 10.166 5.82269 10.244 6.13469C6.708 5.97869 3.588 4.26269 1.482 1.68869C-0.0259998 4.39269 1.664 6.62869 2.782 7.38269C2.106 7.38269 1.43 7.17469 0.858 6.86269C0.858 8.96869 2.34 10.7107 4.264 11.1007C3.848 11.2307 2.912 11.3087 2.34 11.1787C2.886 12.8687 4.472 14.1167 6.318 14.1427C4.862 15.2867 2.73 16.1967 0 15.9107C1.898 17.1327 4.134 17.8347 6.552 17.8347C14.404 17.8347 18.668 11.3347 18.668 5.71869C18.668 5.53669 18.668 5.35469 18.642 5.17269C19.526 4.52269 20.254 3.76869 20.8 2.91069Z" fill="white"/>
</svg>
