<svg width="19" height="19" viewBox="0 0 19 19" fill="none" xmlns="http://www.w3.org/2000/svg">
<path d="M13.7819 0.90918H4.78212C2.3074 0.90918 0.282227 2.93435 0.282227 5.40907V14.4093C0.282227 16.8833 2.3074 18.9092 4.78212 18.9092H13.7819C16.2566 18.9092 18.2818 16.8833 18.2818 14.4093V5.40907C18.2818 2.93435 16.2566 0.90918 13.7819 0.90918ZM16.7817 14.4093C16.7817 16.063 15.4365 17.4091 13.7819 17.4091H4.78212C3.12819 17.4091 1.78226 16.063 1.78226 14.4093V5.40907C1.78226 3.75492 3.12819 2.40922 4.78212 2.40922H13.7819C15.4365 2.40922 16.7817 3.75492 16.7817 5.40907V14.4093Z" fill="white"/>
<path fill-rule="evenodd" clip-rule="evenodd" d="M1.28198 10.4092C0.881977 5.20918 2.44864 2.90918 3.28198 2.40918L7.78198 1.90918L14.782 2.40918L16.282 3.40918L17.282 5.40918V9.90918V13.4092L16.782 16.4092L15.782 17.4092L13.282 18.4092H10.782L5.78198 17.9092C4.94865 17.9092 3.18198 17.8092 2.78198 17.4092C2.74627 17.3735 2.71055 17.3403 2.67484 17.3071C2.21056 16.876 1.74626 16.4449 1.28198 10.4092ZM9.28199 5.40918C6.79624 5.40918 4.7821 7.42354 4.7821 9.90907C4.7821 12.3937 6.79624 14.4094 9.28199 14.4094C11.767 14.4094 13.7819 12.3937 13.7819 9.90907C13.7819 7.42354 11.767 5.40918 9.28199 5.40918ZM9.28199 12.9094C7.62534 12.9094 6.28214 11.5662 6.28214 9.90907C6.28214 8.25198 7.62534 6.90922 9.28199 6.90922C10.9386 6.90922 12.2818 8.25198 12.2818 9.90907C12.2818 11.5662 10.9386 12.9094 9.28199 12.9094ZM15.2825 5.03366C15.2825 5.65497 14.7789 6.15864 14.1576 6.15864C13.5363 6.15864 13.0326 5.65497 13.0326 5.03366C13.0326 4.41236 13.5363 3.90869 14.1576 3.90869C14.7789 3.90869 15.2825 4.41236 15.2825 5.03366Z" fill="white"/>
</svg>
