<svg width="548" height="222" viewBox="0 0 648 242" fill="none" xmlns="http://www.w3.org/2000/svg">
<path d="M0.17375 64.08C0.17375 99.6 24.9738 123.28 61.9338 123.28C80.3338 123.28 97.4538 115.6 104.334 99.6L101.294 98.48C95.0538 111.92 78.7338 120.24 62.0938 120.24C32.0138 120.24 15.6938 99.6 15.6938 61.36C15.6938 26.8 31.2138 8.24 60.1738 8.24C77.4538 8.24 94.5738 19.44 95.5338 33.84L96.0138 48.72L99.2138 48.56L97.6138 2.32H96.0138L96.3338 14C96.3338 15.6 96.4938 17.36 96.8138 18.64L95.6938 18.96C95.2138 17.84 94.5738 16.56 93.7738 15.76C84.6538 8.88 73.2938 5.51999 61.4538 5.51999C24.6538 5.51999 0.0137501 28.88 0.0137501 63.92L0.17375 64.08ZM179.501 123.28C218.381 123.28 244.461 99.76 244.461 64.4C244.461 29.2 218.381 5.67999 179.501 5.67999C140.301 5.67999 114.221 29.2 114.221 64.4C114.221 99.76 140.301 123.28 179.501 123.28ZM180.141 120.4C147.181 120.4 129.581 99.76 129.581 61.52C129.581 27.12 146.861 8.55999 178.861 8.55999C211.501 8.55999 229.101 29.2 229.101 67.44C229.101 101.84 211.981 120.4 180.141 120.4ZM279.315 9.99999H292.115C314.355 9.99999 326.195 21.2 326.195 42.16C326.195 63.12 314.355 74.32 292.115 74.32H282.195V20.72C282.195 17.04 281.395 13.36 279.315 10.8V9.99999ZM253.075 122H296.115V120.56H291.795C283.315 120.56 282.195 119.76 282.195 112.08V77.2H297.395C323.955 77.2 341.555 63.12 341.555 42.16C341.555 21.04 323.955 6.95999 297.395 6.95999H253.075V8.39999H259.155C267.635 8.39999 268.595 9.19999 268.595 16.88V112.08C268.595 119.76 267.635 120.56 259.155 120.56H253.075V122ZM375.565 9.99999H388.365C410.605 9.99999 422.445 21.2 422.445 42.16C422.445 63.12 410.605 74.32 388.365 74.32H378.445V20.72C378.445 17.04 377.645 13.36 375.565 10.8V9.99999ZM349.325 122H392.365V120.56H388.045C379.565 120.56 378.445 119.76 378.445 112.08V77.2H393.645C420.205 77.2 437.805 63.12 437.805 42.16C437.805 21.04 420.205 6.95999 393.645 6.95999H349.325V8.39999H355.405C363.885 8.39999 364.845 9.19999 364.845 16.88V112.08C364.845 119.76 363.885 120.56 355.405 120.56H349.325V122ZM502.375 89.04V37.68H500.775V43.28C500.775 58.64 491.655 60.24 481.735 60.24H474.695V18.32C474.695 14.8 472.935 11.92 470.855 9.99999V9.83999H495.655C512.615 9.83999 521.735 15.76 522.855 33.04L523.495 44.24H526.695L523.495 0.879995L521.895 1.03999L522.535 8.39999H522.215C521.095 7.28 518.535 6.95999 515.815 6.95999H445.575V8.39999H451.655C460.135 8.39999 461.095 9.19999 461.095 16.88V112.08C461.095 119.76 460.135 120.56 451.655 120.56H445.575V122H525.255C528.135 122 530.535 121.68 531.815 120.56H531.975L531.495 127.92L532.935 128.08L535.975 84.72H533.255L532.135 97.52C530.855 112.88 522.855 119.12 505.895 119.12H470.855V118.96C472.935 117.04 474.695 114.16 474.695 110.64V63.12H481.735C491.655 63.12 500.775 64.88 500.775 80.24V89.04H502.375ZM542.763 122H591.723V120.56H581.483C573.003 120.56 571.883 119.76 571.883 112.08V18.32C571.883 14.64 571.083 11.92 569.003 9.99999V9.83999H587.243C608.683 9.83999 620.203 21.2 620.203 42.48C620.203 63.76 608.683 75.28 587.243 75.28H579.243V78H581.323C589.163 78 592.843 82.16 598.763 90.32L611.083 107.6C616.523 115.44 622.603 123.76 631.563 123.76C635.883 123.76 640.523 122 646.283 117.68L650.123 114.64L649.163 113.52L645.323 116.56C643.563 117.84 641.803 118.48 640.203 118.48C633.323 118.48 627.403 108.56 622.763 102L613.963 89.36C610.123 83.76 602.763 79.12 594.443 78.32V77.36L597.963 77.2C619.083 75.44 635.243 62.16 635.243 42.64C635.243 21.36 616.683 7.11999 588.523 7.11999H542.603V8.55999H548.683C557.163 8.55999 558.123 9.35999 558.123 17.04V112.24C558.123 119.92 557.163 120.72 548.683 120.72H542.603L542.763 122ZM360.878 130H373.677C395.918 130 407.758 141.2 407.758 162.16C407.758 183.12 395.918 194.32 373.677 194.32H363.758V140.72C363.758 137.04 362.958 133.36 360.878 130.8V130ZM334.638 242H377.678V240.56H373.358C364.878 240.56 363.758 239.76 363.758 232.08V197.2H378.958C405.518 197.2 423.118 183.12 423.118 162.16C423.118 141.04 405.518 126.96 378.958 126.96H334.638V128.4H340.718C349.198 128.4 350.158 129.2 350.158 136.88V232.08C350.158 239.76 349.198 240.56 340.718 240.56H334.638V242ZM591.368 222.48C622.888 222.48 644.008 203.12 644.008 174C644.008 145.04 622.888 125.68 591.368 125.68C559.528 125.68 538.408 145.04 538.408 174C538.408 203.12 559.528 222.48 591.368 222.48ZM591.848 219.6C567.048 219.6 553.768 202.64 553.768 171.12C553.768 143.44 566.568 128.56 590.568 128.56C615.048 128.56 628.488 145.52 628.488 177.04C628.488 204.72 615.688 219.6 591.848 219.6ZM430.728 242H479.528V240.56H469.448C460.968 240.56 459.848 239.76 459.848 232.08V138.32C459.848 134.64 459.048 131.92 456.968 130V129.84H475.208C494.888 129.84 508.168 142.96 508.168 162.48C508.168 182.16 494.888 195.28 475.208 195.28H467.048V198H469.288C476.488 198 482.248 205.68 490.888 214.64C515.208 240.08 545.608 249.52 572.168 249.52C598.408 249.52 622.568 240.24 638.248 227.92L642.088 224.88L641.128 223.76L637.288 226.8C631.208 231.6 609.448 244.88 580.808 244.88C558.088 244.88 529.288 236.56 501.768 209.2C496.008 203.28 490.408 198.96 482.888 198.32V197.36L486.408 197.2C507.528 195.44 523.848 182.16 523.848 162.64C523.848 141.36 505.128 127.12 476.968 127.12H431.048V128.56H437.128C445.608 128.56 446.568 129.36 446.568 137.04V232.24C446.568 239.92 445.608 240.72 437.128 240.72H431.048L430.728 242Z" fill="white"/>
</svg>
